<svg width="25" height="25" viewBox="0 0 25 25" fill="none" xmlns="http://www.w3.org/2000/svg">
<g clip-path="url(#clip0_100_859)">
<path d="M12.5 2.25059C15.8398 2.25059 16.2352 2.26543 17.5484 2.32402C18.7695 2.37793 19.4281 2.58262 19.868 2.75371C20.4492 2.97871 20.8687 3.25215 21.3031 3.68652C21.743 4.12637 22.0109 4.54121 22.2406 5.12246C22.4117 5.5623 22.6164 6.22559 22.6703 7.44199C22.7289 8.76074 22.7437 9.15606 22.7437 12.4912C22.7437 15.8264 22.7289 16.2264 22.6703 17.5404C22.6164 18.7615 22.4117 19.4201 22.2406 19.86C22.0156 20.4412 21.743 20.8607 21.3078 21.2951C20.868 21.735 20.4531 22.0029 19.8727 22.2326C19.4328 22.4037 18.7688 22.6084 17.5531 22.6623C16.2344 22.7209 15.8391 22.7357 12.5039 22.7357C9.16875 22.7357 8.76875 22.7209 7.45469 22.6623C6.23359 22.6084 5.575 22.4037 5.13516 22.2326C4.55391 22.0076 4.13438 21.735 3.69922 21.2998C3.25938 20.86 2.99141 20.4451 2.76172 19.8646C2.59063 19.4248 2.38594 18.7607 2.33203 17.5451C2.27344 16.2264 2.25859 15.8311 2.25859 12.4959C2.25859 9.16074 2.27344 8.76074 2.33203 7.44668C2.38594 6.22559 2.59063 5.56699 2.76172 5.12715C2.98672 4.5459 3.26016 4.12637 3.69453 3.69121C4.13438 3.25137 4.54922 2.9834 5.13047 2.75371C5.57031 2.58262 6.23359 2.37793 7.45 2.32402C8.76328 2.26543 9.15937 2.25059 12.4992 2.25059H12.5ZM12.5 -0.000195312C9.10625 -0.000195312 8.68203 0.0146484 7.34844 0.0732422C6.02031 0.131836 5.10703 0.34668 4.31641 0.654492C3.49141 0.976367 2.79297 1.40137 2.1 2.0998C1.40156 2.79355 0.976562 3.49121 0.654688 4.31152C0.346875 5.10762 0.132031 6.01543 0.0734375 7.34355C0.0148437 8.68184 0 9.10605 0 12.4998C0 15.8936 0.0148437 16.3178 0.0734375 17.6514C0.132031 18.9795 0.346875 19.8928 0.654688 20.6834C0.977344 21.5084 1.40156 22.2068 2.1 22.8998C2.79297 23.5928 3.49141 24.0232 4.31172 24.3404C5.10781 24.6482 6.01562 24.8631 7.34375 24.9217C8.67656 24.9803 9.10156 24.9951 12.4953 24.9951C15.8891 24.9951 16.3141 24.9803 17.6469 24.9217C18.975 24.8631 19.8883 24.6482 20.6789 24.3404C21.4992 24.0232 22.1977 23.5936 22.8906 22.8998C23.5836 22.2061 24.0141 21.5084 24.3312 20.6881C24.6391 19.892 24.8539 18.9842 24.9125 17.6561C24.9711 16.3232 24.9859 15.8982 24.9859 12.5045C24.9859 9.11074 24.9711 8.68652 24.9125 7.35293C24.8539 6.0248 24.6391 5.11152 24.3312 4.3209C24.0234 3.49043 23.5984 2.79277 22.9008 2.09902C22.2078 1.40605 21.5094 0.975586 20.6891 0.658398C19.893 0.350586 18.9852 0.135742 17.657 0.0771484C16.3195 0.0138672 15.8945 -0.000976562 12.5008 -0.000976562L12.5 -0.000195312Z" fill="#FFC401"/>
<path d="M12.5 6.0791C8.95542 6.0791 6.07886 8.95488 6.07886 12.5002C6.07886 16.0455 8.95464 18.9213 12.5 18.9213C16.0453 18.9213 18.921 16.0455 18.921 12.5002C18.921 8.95566 16.0453 6.0791 12.5 6.0791ZM12.5 16.665C10.2 16.665 8.33511 14.8002 8.33511 12.5002C8.33511 10.2002 10.2 8.33535 12.5 8.33535C14.8 8.33535 16.6648 10.2002 16.6648 12.5002C16.6648 14.8002 14.8 16.665 12.5 16.665Z" fill="#FFC401"/>
<path d="M20.6735 5.8249C20.6735 6.65303 20.0024 7.32412 19.1743 7.32412C18.3461 7.32412 17.675 6.65303 17.675 5.8249C17.675 4.99678 18.3461 4.32568 19.1743 4.32568C20.0024 4.32568 20.6735 4.99678 20.6735 5.8249Z" fill="#FFC401"/>
</g>
<defs>
<clipPath id="clip0_100_859">
<rect width="25" height="25" fill="white"/>
</clipPath>
</defs>
</svg>
