<svg width="25" height="25" viewBox="0 0 25 25" fill="none" xmlns="http://www.w3.org/2000/svg">
<g clip-path="url(#clip0_100_858)">
<path d="M25 5.52734C24.082 5.9375 23.0906 6.21094 22.0555 6.33281C23.1148 5.69766 23.9258 4.69219 24.3109 3.49609C23.3195 4.08203 22.2211 4.51172 21.0539 4.74141C20.1164 3.74531 18.7836 3.125 17.3086 3.125C14.4766 3.125 12.1812 5.42031 12.1812 8.25234C12.1812 8.65234 12.225 9.04297 12.3133 9.41953C8.05077 9.20469 4.27108 7.16328 1.74218 4.05859C1.30233 4.81563 1.04921 5.69922 1.04921 6.63672C1.04921 8.41406 1.95233 9.98594 3.32968 10.9047C2.48983 10.8805 1.69921 10.6461 1.00546 10.2648C1.00546 10.2844 1.00546 10.3086 1.00546 10.3281C1.00546 12.8133 2.77343 14.8891 5.12186 15.357C4.69217 15.4742 4.23827 15.5375 3.76952 15.5375C3.43749 15.5375 3.1203 15.5031 2.80311 15.4445C3.4578 17.4805 5.35233 18.9648 7.59296 19.0094C5.83514 20.3859 3.62811 21.207 1.22108 21.207C0.806238 21.207 0.400769 21.1828 -0.00469971 21.1336C2.27108 22.5938 4.96561 23.4383 7.86171 23.4383C17.2953 23.4383 22.4562 15.6211 22.4562 8.84375C22.4562 8.61953 22.4515 8.39922 22.4414 8.17969C23.4422 7.46172 24.3117 6.55859 25 5.52813V5.52734Z" fill="#FFC401"/>
</g>
<defs>
<clipPath id="clip0_100_858">
<rect width="25" height="25" fill="white"/>
</clipPath>
</defs>
</svg>
