<svg width="25" height="25" viewBox="0 0 25 25" fill="none" xmlns="http://www.w3.org/2000/svg">
<g clip-path="url(#clip0_100_860)">
<path d="M24.7507 7.4998C24.7507 7.4998 24.5062 5.77637 23.7546 5.01934C22.8023 4.02324 21.7382 4.01855 21.25 3.95996C17.7539 3.70605 12.5046 3.70605 12.5046 3.70605H12.4953C12.4953 3.70605 7.24605 3.70605 3.74995 3.95996C3.26167 4.01855 2.19761 4.02324 1.24526 5.01934C0.49292 5.77637 0.253857 7.4998 0.253857 7.4998C0.253857 7.4998 0.00463867 9.52168 0.00463867 11.5475V13.442C0.00463867 15.4631 0.253857 17.4896 0.253857 17.4896C0.253857 17.4896 0.498389 19.2131 1.24526 19.9701C2.19761 20.9662 3.44761 20.9318 4.00386 21.0396C6.0062 21.2303 12.5046 21.2889 12.5046 21.2889C12.5046 21.2889 17.7585 21.2795 21.2546 21.0303C21.7429 20.9717 22.8078 20.967 23.7593 19.9709C24.5109 19.2139 24.7554 17.4904 24.7554 17.4904C24.7554 17.4904 25.0046 15.4693 25.0046 13.4428V11.5482C25 9.52637 24.7507 7.50059 24.7507 7.50059V7.4998ZM9.91714 15.742V8.71543L16.6703 12.2412L9.91714 15.742Z" fill="#FFC401"/>
</g>
<defs>
<clipPath id="clip0_100_860">
<rect width="25" height="25" fill="white"/>
</clipPath>
</defs>
</svg>
