<svg width="54" height="54" viewBox="0 0 54 54" fill="none" xmlns="http://www.w3.org/2000/svg">
<rect x="15.1579" y="9.47363" width="23.6842" height="22.7368" fill="white"/>
<g clip-path="url(#clip0_100_1013)">
<path d="M27 0C15.75 0 6.75 9 6.75 20.25C6.75 34.2 14.4 46.575 25.875 53.775C26.55 54.225 27.45 54.225 28.35 53.775C39.6 46.35 47.25 34.2 47.25 20.25C47.25 9 38.25 0 27 0ZM27 29.25C22.05 29.25 18 25.2 18 20.25C18 15.3 22.05 11.25 27 11.25C31.95 11.25 36 15.3 36 20.25C36 25.2 31.95 29.25 27 29.25Z" fill="#FFC401"/>
</g>
<defs>
<clipPath id="clip0_100_1013">
<rect width="54" height="54" fill="white"/>
</clipPath>
</defs>
</svg>
