<svg width="24" height="24" viewBox="0 0 24 24" fill="none" xmlns="http://www.w3.org/2000/svg">
<path d="M19.4953 15.7266C18.8109 15.0234 16.8656 13.7063 15.5906 13.7063C15.2953 13.7063 15.0375 13.7719 14.8266 13.9078C14.2031 14.3063 13.7062 14.6156 13.4672 14.6156C13.3359 14.6156 13.1953 14.4984 12.8859 14.2313L12.8344 14.1844C11.9766 13.4391 11.7937 13.2469 11.4609 12.9L11.3766 12.8109C11.3156 12.75 11.2641 12.6938 11.2125 12.6422C10.9219 12.3422 10.7109 12.1266 9.96562 11.2828L9.9328 11.2453C9.57655 10.8422 9.34218 10.5797 9.32812 10.3875C9.31405 10.2 9.47812 9.89531 9.89531 9.32813C10.4016 8.64375 10.4203 7.8 9.95624 6.82031C9.58593 6.04688 8.98124 5.30625 8.44687 4.65469L8.39999 4.59844C7.94062 4.03594 7.40624 3.75469 6.81093 3.75469C6.14999 3.75469 5.60155 4.11094 5.31093 4.29844C5.28749 4.3125 5.26405 4.33125 5.24062 4.34531C4.58905 4.75781 4.11562 5.325 3.93749 5.90156C3.6703 6.76875 3.49218 7.89375 4.77187 10.2328C5.87812 12.2578 6.88124 13.6172 8.47499 15.2531C9.97499 16.7906 10.6406 17.2875 12.1312 18.3656C13.7906 19.5656 15.3844 20.2547 16.5 20.2547C17.5359 20.2547 18.3516 20.2547 19.5141 18.8531C20.7328 17.3813 20.2266 16.4813 19.4953 15.7266Z" fill="black"/>
</svg>
